<?xml version="1.0" encoding="UTF-8" standalone="no"?>
<!-- Created with Inkscape (http://www.inkscape.org/) -->

<svg
   version="1.1"
   id="svg2"
   width="30"
   height="176"
   viewBox="0 0 30 176"
   sodipodi:docname="tab-left-arrow.svg"
   xml:space="preserve"
   inkscape:version="1.2.2 (b0a8486541, 2022-12-01)"
   xmlns:inkscape="http://www.inkscape.org/namespaces/inkscape"
   xmlns:sodipodi="http://sodipodi.sourceforge.net/DTD/sodipodi-0.dtd"
   xmlns="http://www.w3.org/2000/svg"
   xmlns:svg="http://www.w3.org/2000/svg"><defs
     id="defs6"><style
       type="text/css"
       id="current-color-scheme">
      .ColorScheme-Text {
        color:#4d4d4d;
      }
      </style></defs><sodipodi:namedview
     id="namedview4"
     pagecolor="#505050"
     bordercolor="#ffffff"
     borderopacity="1"
     inkscape:showpageshadow="0"
     inkscape:pageopacity="0"
     inkscape:pagecheckerboard="1"
     inkscape:deskcolor="#505050"
     showgrid="false"
     inkscape:zoom="1.8963318"
     inkscape:cx="-46.932715"
     inkscape:cy="130.25147"
     inkscape:window-width="1440"
     inkscape:window-height="874"
     inkscape:window-x="-4"
     inkscape:window-y="-4"
     inkscape:window-maximized="1"
     inkscape:current-layer="g8" /><g
     inkscape:groupmode="layer"
     inkscape:label="Image"
     id="g8"><path
       style="fill:#f9f9f9;fill-opacity:1;stroke:none;stroke-width:1.33333"
       d="m 10.333335,21.488764 8.334664,-7.999996 0.998666,0.958668 -5.730665,5.499997 -1.649332,1.541331 1.649332,1.541339 5.730665,5.499997 -0.998666,0.958668 -5.730664,-5.500001 z"
       class="ColorScheme-Text"
       id="path4" /><path
       style="fill:#999999;fill-opacity:1;stroke:none;stroke-width:1.33333"
       d="m 10.333335,108.88784 8.334664,-8 0.998666,0.95867 -5.730665,5.5 -1.649332,1.54133 1.649332,1.54134 5.730665,5.49999 -0.998666,0.95867 -5.730664,-5.5 z"
       class="ColorScheme-Text"
       id="path3058" /><path
       style="fill:#808080;fill-opacity:1;stroke:none;stroke-width:1.33333"
       d="m 10.333335,153.49058 8.334664,-8 0.998666,0.95867 -5.730665,5.5 -1.649332,1.54133 1.649332,1.54134 5.730665,5.49999 -0.998666,0.95867 -5.730664,-5.5 z"
       class="ColorScheme-Text"
       id="path3060" /><path
       style="fill:#f9f9f9;fill-opacity:1;stroke:none;stroke-width:1.33333"
       d="m 10.333335,65.401666 8.334664,-7.999996 0.998666,0.958668 -5.730665,5.499997 -1.649332,1.541331 1.649332,1.541339 5.730665,5.499997 -0.998666,0.958668 -5.730664,-5.500001 z"
       class="ColorScheme-Text"
       id="path4087" /></g></svg>
